<?xml version="1.0" encoding="iso-8859-1"?>
<!-- Generator: Adobe Illustrator 19.0.0, SVG Export Plug-In . SVG Version: 6.00 Build 0)  -->
<svg version="1.1" id="Layer_1" xmlns="http://www.w3.org/2000/svg" xmlns:xlink="http://www.w3.org/1999/xlink" x="0px" y="0px"
	 viewBox="0 0 512 512" style="enable-background:new 0 0 512 512;" xml:space="preserve">
<g>
	<g>
		<path d="M256,356.333c-15.256,0-27.667,12.411-27.667,27.667c0,15.256,12.412,27.667,27.667,27.667s27.667-12.411,27.667-27.667
			C283.667,368.744,271.256,356.333,256,356.333z"/>
	</g>
</g>
<g>
	<g>
		<path d="M256,100.333c-15.255,0-27.667,12.411-27.667,27.667s12.411,27.667,27.667,27.667s27.667-12.411,27.667-27.667
			C283.667,112.745,271.255,100.333,256,100.333z"/>
	</g>
</g>
<g>
	<g>
		<path d="M128,228.333c-15.255,0-27.667,12.411-27.667,27.667s12.411,27.667,27.667,27.667s27.666-12.411,27.666-27.667
			S143.255,228.333,128,228.333z"/>
	</g>
</g>
<g>
	<g>
		<path d="M384,228.333c-15.256,0-27.667,12.411-27.667,27.667s12.411,27.667,27.667,27.667s27.667-12.411,27.667-27.667
			S399.256,228.333,384,228.333z"/>
	</g>
</g>
<g>
	<g>
		<path d="M437.02,437.019C485.371,388.667,512,324.38,512,256s-26.629-132.667-74.98-181.019C388.667,26.629,324.38,0,256,0
			S123.332,26.629,74.98,74.981C26.629,123.333,0,187.62,0,256s26.629,132.667,74.98,181.019C123.332,485.371,187.62,512,256,512
			h256v-30H376.51C398.505,470.235,418.883,455.155,437.02,437.019z M128,313.667c-31.797,0-57.666-25.869-57.666-57.667
			c0-31.798,25.869-57.667,57.666-57.667s57.666,25.869,57.666,57.667C185.666,287.798,159.797,313.667,128,313.667z M256,441.667
			c-31.798,0-57.667-25.869-57.667-57.667c0-31.798,25.87-57.667,57.667-57.667s57.667,25.869,57.667,57.667
			C313.667,415.798,287.798,441.667,256,441.667z M241,271v-30h30v30H241z M256,185.667c-31.797,0-57.667-25.869-57.667-57.667
			c0-31.797,25.869-57.667,57.667-57.667s57.667,25.87,57.667,57.667C313.667,159.798,287.797,185.667,256,185.667z M326.333,256
			c0-31.798,25.869-57.667,57.667-57.667c31.798,0,57.667,25.869,57.667,57.667S415.798,313.667,384,313.667
			C352.202,313.667,326.333,287.798,326.333,256z"/>
	</g>
</g>
<g>
</g>
<g>
</g>
<g>
</g>
<g>
</g>
<g>
</g>
<g>
</g>
<g>
</g>
<g>
</g>
<g>
</g>
<g>
</g>
<g>
</g>
<g>
</g>
<g>
</g>
<g>
</g>
<g>
</g>
</svg>
