<?xml version="1.0" encoding="iso-8859-1"?>
<!-- Generator: Adobe Illustrator 19.0.0, SVG Export Plug-In . SVG Version: 6.00 Build 0)  -->
<svg version="1.1" id="Layer_1" xmlns="http://www.w3.org/2000/svg" xmlns:xlink="http://www.w3.org/1999/xlink" x="0px" y="0px"
	 viewBox="0 0 512 512" style="enable-background:new 0 0 512 512;" xml:space="preserve">
<g>
	<g>
		<path d="M482,30.23v59.826h-44.978V30.23h-30v59.826H104.978V30.23h-30v59.826H30V30.23H0v451.54h30v-59.826h44.978v59.826h30
			v-59.826h302.045v59.826h30v-59.826H482v59.826h30V30.23H482z M74.978,391.945H30V319h44.978V391.945z M74.978,289H30v-66h44.978
			V289z M74.978,193H30v-72.944h44.978V193z M187.494,335.104V176.896L324.506,256L187.494,335.104z M482,391.945h-44.978V319H482
			V391.945z M482,289h-44.978v-66H482V289z M482,193h-44.978v-72.944H482V193z"/>
	</g>
</g>
<g>
</g>
<g>
</g>
<g>
</g>
<g>
</g>
<g>
</g>
<g>
</g>
<g>
</g>
<g>
</g>
<g>
</g>
<g>
</g>
<g>
</g>
<g>
</g>
<g>
</g>
<g>
</g>
<g>
</g>
</svg>
