<?xml version="1.0" standalone="no"?>
<!DOCTYPE svg PUBLIC "-//W3C//DTD SVG 20010904//EN"
 "http://www.w3.org/TR/2001/REC-SVG-20010904/DTD/svg10.dtd">
<svg version="1.0" xmlns="http://www.w3.org/2000/svg"
 width="256.000000pt" height="256.000000pt" viewBox="0 0 256.000000 256.000000"
 preserveAspectRatio="xMidYMid meet">
<metadata>
Created by potrace 1.11, written by Peter Selinger 2001-2013
</metadata>
<g transform="translate(0.000000,256.000000) scale(0.100000,-0.100000)"
fill="#000000" stroke="none">
<path d="M304 2231 c-31 -13 -51 -73 -79 -236 -10 -63 -31 -175 -40 -215 -7
-32 -11 -54 -20 -110 -4 -25 -9 -54 -11 -65 -15 -77 -44 -236 -49 -263 -3 -18
-12 -63 -19 -100 -8 -37 -17 -85 -20 -107 -4 -23 -9 -52 -11 -65 -3 -14 -7
-36 -10 -50 -2 -14 -9 -50 -15 -80 -29 -146 -22 -165 73 -200 18 -6 28 -17 26
-27 -3 -36 2 -46 50 -94 34 -34 59 -50 82 -53 19 -3 68 -12 109 -20 81 -16 80
-16 245 -46 205 -37 421 -77 451 -84 12 -2 37 -7 55 -10 19 -3 84 -14 144 -26
61 -11 148 -27 195 -36 47 -8 105 -19 130 -24 25 -5 72 -14 105 -20 33 -5 71
-12 85 -15 14 -3 40 -8 57 -11 18 -3 61 -11 95 -18 50 -10 64 -10 66 -1 2 7
20 15 41 19 39 6 91 48 91 73 0 10 13 13 48 12 26 -1 58 4 71 10 24 14 47 58
56 112 20 114 60 333 71 382 3 16 7 38 9 50 1 12 6 38 9 57 4 19 14 73 22 120
19 103 22 118 29 150 2 14 7 36 9 50 2 14 12 66 21 115 10 50 19 101 21 115 3
14 9 48 14 75 35 173 35 186 10 217 -23 30 -72 47 -195 67 -38 7 -90 16 -115
21 -48 10 -76 15 -147 26 -23 3 -43 9 -43 13 0 4 -22 8 -49 8 -27 0 -55 4 -63
9 -7 5 -24 9 -38 10 -30 2 -212 34 -220 39 -3 1 -27 6 -55 9 -27 4 -69 11 -93
17 -23 5 -59 12 -80 15 -20 3 -43 7 -51 10 -7 2 -34 7 -59 10 -25 3 -49 7 -52
9 -4 2 -35 9 -71 14 -35 6 -75 13 -89 16 -14 3 -61 12 -105 20 -44 8 -91 17
-105 19 -13 3 -42 8 -65 11 -22 4 -74 13 -115 22 -41 8 -88 17 -105 20 -16 2
-63 11 -103 19 -101 20 -173 25 -198 15z"/>
</g>
</svg>
