<?xml version="1.0" encoding="utf-8"?>
<!-- Generator: Adobe Illustrator 21.0.1, SVG Export Plug-In . SVG Version: 6.00 Build 0)  -->
<svg version="1.1" id="Layer_1" xmlns="http://www.w3.org/2000/svg" xmlns:xlink="http://www.w3.org/1999/xlink" x="0px" y="0px"
	 viewBox="0 0 512 512" style="enable-background:new 0 0 512 512;" xml:space="preserve">
<g>
	<g>
		<path d="M480.6,18.9H31.4C14.1,18.9,0,32.9,0,50.3V291c0,17.4,14.1,31.4,31.4,31.4h449.1c17.4,0,31.4-14.1,31.4-31.4V50.3
			C512,32.9,497.9,18.9,480.6,18.9z M340,205.6L190.4,264c-2.7,1-5.5,1.6-8.3,1.6c-4.5,0-8.7-1.3-12.6-4c-6.2-4.3-9.6-11.3-9.6-18.8
			V125.9c0-7.5,3.4-14.4,9.6-18.6c6.2-4.3,14-5.8,21-2.2c0,0-0.1,0-0.1,0l149.6,58.2c8.8,3.4,14.5,11.7,14.5,21.1
			C354.6,193.9,348.8,202.2,340,205.6z"/>
	</g>
</g>
<g>
	<g>
		<path d="M438.6,379.2H331.5h-27.8l0-39.6h-95.2l0,39.6h-26H75.4c-14.9,0-26.9,12.1-26.9,26.9s12.1,26.9,26.9,26.9h363.1
			c14.9,0,26.9-12.1,26.9-26.9C465.5,391.3,453.4,379.2,438.6,379.2z"/>
	</g>
</g>
<g>
	<g>
		<polygon points="186.8,132 186.8,236.7 321,184.3 		"/>
	</g>
</g>
</svg>
